<svg width="36" height="32" viewBox="0 0 36 32" fill="none" xmlns="http://www.w3.org/2000/svg">
<g clip-path="url(#clip0_7_122)">
<path d="M26.91 23.92C24.3459 25.6573 21.2237 26.6198 18 26.6666C7.5 26.6666 1.5 16 1.5 16C3.36583 12.9092 5.9537 10.2088 9.09 8.07998M14.85 5.65331C15.8825 5.43849 16.9396 5.3311 18 5.33331C28.5 5.33331 34.5 16 34.5 16C33.5895 17.5141 32.5036 18.9396 31.26 20.2533M21.18 18.8266C20.768 19.2196 20.2712 19.5349 19.7192 19.7535C19.1672 19.9721 18.5714 20.0897 17.9671 20.0991C17.3629 20.1086 16.7627 20.0098 16.2024 19.8086C15.6421 19.6075 15.1331 19.308 14.7058 18.9282C14.2785 18.5484 13.9416 18.0959 13.7153 17.5978C13.4889 17.0998 13.3778 16.5663 13.3885 16.0292C13.3991 15.4921 13.5314 14.9624 13.7773 14.4718C14.0233 13.9811 14.3779 13.5395 14.82 13.1733M1.5 1.33331L34.5 30.6666" stroke="#1E1E1E" stroke-width="4" stroke-linecap="round" stroke-linejoin="round"/>
</g>
<defs>
<clipPath id="clip0_7_122">
<rect width="36" height="32" fill="white"/>
</clipPath>
</defs>
</svg>
