<svg width="34" height="32" viewBox="0 0 34 32" fill="none" xmlns="http://www.w3.org/2000/svg">
<path d="M9.91667 14.6667V9.33335C9.91667 7.56524 10.6629 5.86955 11.9913 4.61931C13.3197 3.36907 15.1214 2.66669 17 2.66669C18.8786 2.66669 20.6803 3.36907 22.0087 4.61931C23.3371 5.86955 24.0833 7.56524 24.0833 9.33335V14.6667M7.08333 14.6667H26.9167C28.4815 14.6667 29.75 15.8606 29.75 17.3334V26.6667C29.75 28.1394 28.4815 29.3334 26.9167 29.3334H7.08333C5.51853 29.3334 4.25 28.1394 4.25 26.6667V17.3334C4.25 15.8606 5.51853 14.6667 7.08333 14.6667Z" stroke="#1E1E1E" stroke-width="4" stroke-linecap="round" stroke-linejoin="round"/>
</svg>
